# xmcd
#
# Track frame offsets:
#	150
#	5768
#	21925
#	41062
#	58786
#	76570
#	93285
#	108117
#	123665
#	144317
#	163851
#	183214
#
# Disc length: 2800 seconds
# Revision: 0
# Processed by: cddbd v1.5.2PL0 Copyright (c) Steve Scherf et al.
# Submitted via: dBpowerAMP V12.0
#
DISCID=930aee0c
DTITLE=Various Artist - Finally Famous
DYEAR=2011
DGENRE=Hip Hop
TTITLE0=Big Sean - Intro
TTITLE1=Big Sean - I Do It
TTITLE2=Big Sean featuring Chris Brown - My Last
TTITLE3=Big Sean - Don't Tell Me You Love Me
TTITLE4=Big Sean - Wait For Me
TTITLE5=Big Sean featuring Kanye West and Roscoe Dash - Marvin and Chardonnay
TTITLE6=Big Sean - Dance (A$$)
TTITLE7=Big Sean - Get It (DT)
TTITLE8=Big Sean featuring John Legend - Memories (Part II)
TTITLE9=Big Sean featuring Wiz Khalifa and Chiddy Bang - High
TTITLE10=Big Sean featuring The-Dream - Live This Life
TTITLE11=Big Sean - So Much More
EXTD=
EXTT0=
EXTT1=
EXTT2=
EXTT3=
EXTT4=
EXTT5=
EXTT6=
EXTT7=
EXTT8=
EXTT9=
EXTT10=
EXTT11=
PLAYORDER=
